<svg width="25" height="24" viewBox="0 0 25 24" fill="none" xmlns="http://www.w3.org/2000/svg">
<path fill-rule="evenodd" clip-rule="evenodd" d="M16.5 3.77096V20.231C16.4999 20.4488 16.4524 20.664 16.3607 20.8616C16.2691 21.0592 16.1355 21.2345 15.9692 21.3753C15.8029 21.516 15.608 21.6189 15.398 21.6767C15.188 21.7345 14.9679 21.7458 14.753 21.71L6.171 20.28C5.70401 20.2021 5.27979 19.9611 4.97381 19.5998C4.66784 19.2385 4.49994 18.7804 4.5 18.307V5.69496C4.49994 5.22152 4.66784 4.76341 4.97381 4.40214C5.27979 4.04086 5.70401 3.79984 6.171 3.72196L14.753 2.29196C14.9679 2.25608 15.1881 2.26746 15.3982 2.32531C15.6083 2.38317 15.8033 2.48611 15.9696 2.62698C16.1359 2.76784 16.2695 2.94324 16.3611 3.14098C16.4527 3.33872 16.5001 3.55404 16.5 3.77196V3.77096ZM18.5 5.00096C19.0046 5.0008 19.4906 5.19137 19.8605 5.53446C20.2305 5.87755 20.4572 6.34781 20.495 6.85096L20.5 7.00096V17.001C20.5002 17.5055 20.3096 17.9915 19.9665 18.3615C19.6234 18.7315 19.1532 18.9581 18.65 18.996L18.5 19.001H17.5V5.00096H18.5ZM12 10.501C11.6022 10.501 11.2206 10.659 10.9393 10.9403C10.658 11.2216 10.5 11.6031 10.5 12.001C10.5 12.3988 10.658 12.7803 10.9393 13.0616C11.2206 13.3429 11.6022 13.501 12 13.501C12.3978 13.501 12.7794 13.3429 13.0607 13.0616C13.342 12.7803 13.5 12.3988 13.5 12.001C13.5 11.6031 13.342 11.2216 13.0607 10.9403C12.7794 10.659 12.3978 10.501 12 10.501Z" fill="white"/>
</svg>
