<svg width="24" height="24" viewBox="0 0 24 24" fill="none" xmlns="http://www.w3.org/2000/svg">
<path d="M20.4663 14.1013C20.0411 15.6231 19.2249 17.007 18.0988 18.1153C16.9728 19.2237 15.5762 20.018 14.0479 20.4191C12.5197 20.8202 10.913 20.8142 9.38783 20.4016C7.86261 19.9891 6.472 19.1844 5.3543 18.0676C4.2366 16.9508 3.43079 15.5608 3.017 14.036C2.60322 12.5111 2.5959 10.9044 2.99576 9.37585C3.39562 7.84726 4.18874 6.45001 5.2962 5.32308C6.40367 4.19614 7.7869 3.37881 9.30829 2.95238C9.41975 2.91648 9.53833 2.90852 9.65359 2.92919C9.76886 2.94986 9.87728 2.99853 9.96933 3.07092C10.0614 3.14331 10.1342 3.2372 10.1815 3.34434C10.2288 3.45149 10.249 3.5686 10.2404 3.68538C10.2401 3.74079 10.231 3.79579 10.2132 3.84827C9.85421 5.14412 9.84535 6.512 10.1876 7.81239C10.5298 9.11277 11.2108 10.2991 12.1611 11.2504C13.1115 12.2017 14.2972 12.8838 15.5972 13.2273C16.8973 13.5707 18.2652 13.5632 19.5613 13.2054L19.7604 13.1692C19.9179 13.168 20.0715 13.2175 20.1987 13.3104C20.3258 13.4033 20.4196 13.5347 20.4663 13.6851C20.5118 13.8201 20.5118 13.9663 20.4663 14.1013Z" fill="#B9F249"/>
</svg>
