<svg width="22" height="24" viewBox="0 0 22 24" fill="none" xmlns="http://www.w3.org/2000/svg">
<path d="M1.53001 15.1163C1.31701 16.6845 2.26801 17.7724 3.43201 18.3146C7.89501 20.3959 14.105 20.3959 18.568 18.3146C19.732 17.7724 20.683 16.6834 20.47 15.1163C20.34 14.1521 19.693 13.35 19.214 12.5659C18.587 11.5264 18.525 10.3935 18.524 9.1875C18.525 4.52775 15.157 0.75 11 0.75C6.843 0.75 3.47501 4.52775 3.47501 9.1875C3.47501 10.3935 3.41301 11.5275 2.78501 12.5659C2.30701 13.35 1.66101 14.1521 1.53001 15.1163Z" stroke="#B9F249" stroke-width="1.5" stroke-linecap="round" stroke-linejoin="round"/>
<path d="M9 20.5C9.28625 21.65 10.2975 22.5 11.5 22.5C12.7031 22.5 13.7131 21.65 14 20.5" stroke="#B9F249" stroke-width="1.5" stroke-linecap="round" stroke-linejoin="round"/>
</svg>
