<svg width="24" height="24" viewBox="0 0 24 24" fill="none" xmlns="http://www.w3.org/2000/svg">
<g clip-path="url(#clip0_81_3244)">
<path d="M17.9056 11.8906C17.9056 13.1077 17.5447 14.2974 16.8685 15.3094C16.1924 16.3214 15.2313 17.1101 14.1069 17.5759C12.9824 18.0416 11.7451 18.1635 10.5514 17.926C9.35775 17.6886 8.26127 17.1025 7.40067 16.2419C6.54007 15.3813 5.95399 14.2848 5.71655 13.0911C5.47911 11.8975 5.60097 10.6602 6.06673 9.53573C6.53248 8.41129 7.32121 7.45023 8.33317 6.77406C9.34513 6.09788 10.5349 5.73698 11.752 5.73698C13.3833 5.73937 14.9471 6.38847 16.1006 7.54198C17.2541 8.6955 17.9032 10.2593 17.9056 11.8906ZM11.752 4.28906C11.944 4.28906 12.1281 4.21279 12.2639 4.07702C12.3996 3.94125 12.4759 3.75711 12.4759 3.5651V1.75521C12.4759 1.5632 12.3996 1.37906 12.2639 1.24329C12.1281 1.10752 11.944 1.03125 11.752 1.03125C11.5599 1.03125 11.3758 1.10752 11.24 1.24329C11.1043 1.37906 11.028 1.5632 11.028 1.75521V3.5651C11.028 3.75711 11.1043 3.94125 11.24 4.07702C11.3758 4.21279 11.5599 4.28906 11.752 4.28906ZM5.35397 6.51523C5.49083 6.64846 5.67428 6.723 5.86527 6.723C6.05626 6.723 6.23971 6.64846 6.37656 6.51523C6.51195 6.37952 6.58799 6.19564 6.58799 6.00394C6.58799 5.81224 6.51195 5.62836 6.37656 5.49264L5.10059 4.20762C5.03567 4.12853 4.95492 4.0639 4.86353 4.0179C4.77214 3.9719 4.67213 3.94554 4.56993 3.94052C4.46774 3.9355 4.36563 3.95193 4.27017 3.98876C4.1747 4.02558 4.08801 4.08198 4.01566 4.15433C3.94331 4.22668 3.88691 4.31338 3.85009 4.40884C3.81326 4.5043 3.79683 4.60641 3.80185 4.7086C3.80687 4.8108 3.83323 4.91081 3.87923 5.0022C3.92523 5.0936 3.98985 5.17435 4.06895 5.23926L5.35397 6.51523ZM4.15039 11.8906C4.15039 11.6986 4.07412 11.5145 3.93835 11.3787C3.80258 11.2429 3.61844 11.1667 3.42643 11.1667H1.61654C1.42453 11.1667 1.24039 11.2429 1.10462 11.3787C0.968852 11.5145 0.892578 11.6986 0.892578 11.8906C0.892578 12.0826 0.968852 12.2668 1.10462 12.4025C1.24039 12.5383 1.42453 12.6146 1.61654 12.6146H3.42643C3.61844 12.6146 3.80258 12.5383 3.93835 12.4025C4.07412 12.2668 4.15039 12.0826 4.15039 11.8906ZM5.35397 17.266L4.06895 18.542C3.933 18.6792 3.85673 18.8646 3.85673 19.0578C3.85673 19.251 3.933 19.4364 4.06895 19.5736C4.2089 19.7049 4.39288 19.7792 4.58477 19.7818C4.77701 19.781 4.96162 19.7065 5.10059 19.5736L6.37656 18.2886C6.50134 18.1509 6.56839 17.9705 6.56381 17.7847C6.55924 17.5989 6.4834 17.422 6.35199 17.2906C6.22058 17.1592 6.04367 17.0833 5.85789 17.0788C5.67211 17.0742 5.49169 17.1412 5.35397 17.266V17.266ZM11.752 19.4922C11.5599 19.4922 11.3758 19.5685 11.24 19.7042C11.1043 19.84 11.028 20.0241 11.028 20.2161V22.026C11.028 22.218 11.1043 22.4022 11.24 22.538C11.3758 22.6737 11.5599 22.75 11.752 22.75C11.944 22.75 12.1281 22.6737 12.2639 22.538C12.3996 22.4022 12.4759 22.218 12.4759 22.026V20.2161C12.4759 20.0241 12.3996 19.84 12.2639 19.7042C12.1281 19.5685 11.944 19.4922 11.752 19.4922ZM18.1499 17.266C18.0122 17.1412 17.8318 17.0742 17.646 17.0788C17.4602 17.0833 17.2833 17.1592 17.1519 17.2906C17.0205 17.422 16.9447 17.5989 16.9401 17.7847C16.9355 17.9705 17.0026 18.1509 17.1273 18.2886L18.4033 19.5736C18.5423 19.7065 18.7269 19.781 18.9191 19.7818C19.111 19.7792 19.295 19.7049 19.435 19.5736C19.5709 19.4364 19.6472 19.251 19.6472 19.0578C19.6472 18.8646 19.5709 18.6792 19.435 18.542L18.1499 17.266ZM21.8874 11.1667H20.0775C19.8855 11.1667 19.7013 11.2429 19.5656 11.3787C19.4298 11.5145 19.3535 11.6986 19.3535 11.8906C19.3535 12.0826 19.4298 12.2668 19.5656 12.4025C19.7013 12.5383 19.8855 12.6146 20.0775 12.6146H21.8874C22.0794 12.6146 22.2635 12.5383 22.3993 12.4025C22.5351 12.2668 22.6113 12.0826 22.6113 11.8906C22.6113 11.6986 22.5351 11.5145 22.3993 11.3787C22.2635 11.2429 22.0794 11.1667 21.8874 11.1667ZM17.6432 6.72337C17.7372 6.7242 17.8305 6.70622 17.9176 6.67047C18.0046 6.63473 18.0836 6.58195 18.1499 6.51523L19.435 5.23926C19.5504 5.0986 19.6094 4.92002 19.6005 4.73827C19.5915 4.55652 19.5153 4.38459 19.3867 4.25591C19.258 4.12724 19.0861 4.05103 18.9043 4.0421C18.7226 4.03318 18.544 4.09217 18.4033 4.20762L17.1273 5.49264C16.992 5.62836 16.9159 5.81224 16.9159 6.00394C16.9159 6.19564 16.992 6.37952 17.1273 6.51523C17.1947 6.58306 17.2752 6.63648 17.3639 6.67225C17.4526 6.70803 17.5476 6.72542 17.6432 6.72337Z" fill="#B9F249"/>
</g>
<defs>
<clipPath id="clip0_81_3244">
<rect width="23.1667" height="23.1667" fill="white" transform="translate(0.167969 0.306641)"/>
</clipPath>
</defs>
</svg>
