<svg width="46" height="47" viewBox="0 0 46 47" fill="none" xmlns="http://www.w3.org/2000/svg">
<path d="M32.3805 27.8224C33.023 27.3099 33.5985 26.7186 34.0935 26.0625C34.9846 24.8771 35.5928 23.5036 35.8713 22.047C36.1499 20.5904 36.0915 19.0894 35.7006 17.6589C35.3097 16.2284 34.5966 14.9062 33.6161 13.7937C32.6355 12.6812 31.4134 11.8078 30.0432 11.2404C28.6731 10.673 27.1913 10.4266 25.7113 10.52C24.2313 10.6135 22.7922 11.0444 21.5044 11.7796C20.2165 12.5149 19.114 13.5351 18.2811 14.7621C17.4483 15.9892 16.9073 17.3905 16.6994 18.8588C14.5607 19.2842 12.5744 20.2729 10.9456 21.7228C9.3168 23.1726 8.10466 25.0311 7.4344 27.1061C5.18211 27.7502 3.23852 29.1867 1.9618 31.1508C0.685075 33.1149 0.161263 35.4743 0.486889 37.7941C0.812516 40.114 1.96564 42.238 3.73375 43.7747C5.50187 45.3114 7.76583 46.1572 10.1084 46.1564H27.9351C30.1147 46.1625 32.2328 45.4343 33.9478 44.0893C35.6629 42.7443 36.8749 40.8608 37.3885 38.7426C37.9021 36.6244 37.6873 34.395 36.7787 32.4138C35.8702 30.4327 34.3208 28.8153 32.3805 27.8224ZM26.3145 13.7442C28.0332 13.7459 29.6811 14.4294 30.8964 15.6447C32.1117 16.8601 32.7952 18.5079 32.797 20.2266C32.8016 21.63 32.3462 22.9962 31.5005 24.1161C31.0742 24.6767 30.5597 25.1644 29.9771 25.5601C29.0577 23.6514 27.658 22.0145 25.9153 20.8099C24.1726 19.6053 22.1467 18.8743 20.0363 18.6887C20.3797 17.2816 21.1847 16.0302 22.3227 15.1342C23.4607 14.2382 24.8661 13.7494 26.3145 13.7458V13.7442ZM27.9351 42.9152H10.1084C8.48504 42.9179 6.91996 42.3103 5.7236 41.213C4.52724 40.1157 3.78701 38.6089 3.64973 36.9913C3.51245 35.3738 3.98816 33.7637 4.98249 32.4805C5.97682 31.1973 7.41714 30.3347 9.01774 30.0637L10.0922 29.8822L10.3288 28.8191C10.7693 26.8418 11.8706 25.0738 13.4511 23.8066C15.0316 22.5395 16.9968 21.8489 19.0226 21.8489C21.0483 21.8489 23.0135 22.5395 24.594 23.8066C26.1745 25.0738 27.2759 26.8418 27.7163 28.8191L27.953 29.8822L29.0258 30.0637C30.6264 30.3347 32.0667 31.1973 33.0611 32.4805C34.0554 33.7637 34.5311 35.3738 34.3938 36.9913C34.2565 38.6089 33.5163 40.1157 32.3199 41.213C31.1236 42.3103 29.5585 42.9179 27.9351 42.9152ZM39.2794 18.606H45.7619V21.8472H39.2794V18.606ZM34.3365 9.91144L38.9196 5.32997L41.2128 7.62152L36.6281 12.2046L34.3365 9.91144ZM24.6939 0.779297H27.9351V7.26174H24.6939V0.779297ZM11.4179 7.62152L13.7094 5.32997L18.2941 9.91306L16.001 12.2046L11.4179 7.62152Z" fill="white"/>
</svg>
