<svg width="81" height="80" viewBox="0 0 81 80" fill="none" xmlns="http://www.w3.org/2000/svg">
<g clip-path="url(#clip0_81_3488)">
<path d="M60.4749 26.8495C59.2435 25.551 57.1905 25.4939 55.89 26.7284L35.1852 46.3642L25.3096 36.2246C24.0588 34.9414 22.008 34.9132 20.7236 36.1642C19.4403 37.4139 19.4133 39.4668 20.663 40.7501L32.7711 53.1815C33.4057 53.8334 34.2489 54.162 35.0944 54.162C35.8966 54.162 36.6988 53.8657 37.3269 53.2723L60.3539 31.4345C61.6533 30.202 61.7083 28.149 60.4749 26.8495Z" fill="#B9F249"/>
<path d="M40.5 0C18.4437 0 0.5 17.9437 0.5 40C0.5 62.0563 18.4437 80 40.5 80C62.5563 80 80.5 62.0563 80.5 40C80.5 17.9437 62.5563 0 40.5 0ZM40.5 73.5136C22.0211 73.5136 6.98641 58.4802 6.98641 40C6.98641 21.5211 22.0209 6.48641 40.5 6.48641C58.98 6.48641 74.0136 21.5209 74.0136 40C74.0136 58.48 58.98 73.5136 40.5 73.5136Z" fill="#B9F249"/>
</g>
<defs>
<clipPath id="clip0_81_3488">
<rect width="80" height="80" fill="white" transform="translate(0.5)"/>
</clipPath>
</defs>
</svg>
